<svg width="1024" height="1024" viewBox="0 0 1024 1024" fill="none" xmlns="http://www.w3.org/2000/svg">
<path d="M813.885 98.4261C941.262 191.562 1024 342.119 1024 512C1024 794.77 794.77 1024 512 1024C420.11 1024 333.874 999.792 259.321 957.407L626.551 590.331C628.119 588.764 629.335 586.88 630.119 584.806L813.885 98.4261ZM210.52 925.871C226.141 937.27 242.431 947.805 259.321 957.407L213.034 1003.68C201.141 1015.57 181.439 1002.84 187.383 987.112L210.52 925.871ZM512 0C604.184 6.32437e-05 690.676 24.3642 765.393 67.0012L397.602 434.643C396.034 436.21 394.817 438.095 394.033 440.169L210.52 925.871C82.9131 832.758 0 682.062 0 512C0.000117066 229.23 229.23 0 512 0ZM811.118 21.2974C823.011 9.40874 842.713 22.1324 836.769 37.8635L813.885 98.4261C798.361 87.0751 782.174 76.5774 765.393 67.0012L811.118 21.2974Z" fill="url(#paint0_linear_2370_1602)"/>
<defs>
<linearGradient id="paint0_linear_2370_1602" x1="266.824" y1="334.487" x2="737.509" y2="805.172" gradientUnits="userSpaceOnUse">
<stop stop-color="#3AAA35"/>
<stop offset="1" stop-color="#008D36"/>
</linearGradient>
</defs>
</svg>
