<svg width="1840" height="710" viewBox="0 0 1840 710" fill="none" xmlns="http://www.w3.org/2000/svg">
<g clip-path="url(#clip0_3_11)">
<path d="M1197.05 284.86L1222.23 257.61C1221.9 257 1221.55 256.39 1221.22 255.78C1191.03 199.97 1175.93 151.41 1175.93 110.09C1175.93 82.85 1183.39 61.75 1198.32 46.81C1213.24 31.87 1234.31 24.39 1261.53 24.39C1307.62 24.39 1362.49 43.3 1426.14 81.11C1482.57 114.2 1538.8 157.66 1594.84 211.47L1597.49 208.76C1535.15 148.37 1472.21 99.63 1408.65 62.61C1337.45 20.88 1276.14 0 1224.71 0C1194.82 0 1171.63 8.24 1155.15 24.71C1138.67 41.19 1130.43 64.36 1130.43 94.22C1130.43 140.34 1147.33 194.59 1181.12 256.97C1186.14 266.24 1191.47 275.54 1197.05 284.86Z" fill="white"/>
<path d="M1282.38 349.96L1258.36 373.78C1271.47 390.61 1285.44 407.52 1300.33 424.49L1324.63 402.23C1309.51 384.71 1295.43 367.29 1282.39 349.96H1282.38Z" fill="white"/>
<path d="M1789.79 453.46C1760.48 398.66 1721 342.86 1671.39 286.07L1668.08 288.89C1711.15 339.09 1745.39 388.1 1770.76 435.94C1799.77 490.45 1814.27 537.69 1814.27 577.69C1814.27 604.94 1806.79 626.05 1791.85 641C1776.9 655.93 1755.8 663.41 1728.54 663.41C1683.7 663.41 1630.5 645.59 1568.94 609.98C1514.73 578.95 1460.54 538.18 1406.34 487.67L1379.4 507.04C1440.81 565.58 1502.41 612.64 1564.22 648.16C1634.14 689.09 1694.4 709.56 1744.98 709.56C1774.88 709.56 1798.2 701.19 1814.91 684.48C1831.62 667.76 1839.98 644.44 1839.98 614.52C1839.98 568.75 1823.25 515.08 1789.78 453.46H1789.79Z" fill="white"/>
<path d="M1461.47 427.98L1497.74 551.96H1642.16L1575.56 345.55L1829.44 151.01H1689.57L1545.18 264.95L1514.2 151.01H1373.76L1431.74 342.74L1155.84 551.96H1299.91L1461.47 427.98Z" fill="white"/>
<path d="M811.43 352.8C814.07 347.52 815.39 342.91 815.39 338.95L813.41 333.01C808.57 328.62 795.82 326.42 775.16 326.42C759.33 326.42 746.14 329.28 735.59 334.99C727.68 339.39 717.56 348.18 705.26 361.37L607.66 346.2C638.43 310.59 669.65 285.64 701.3 271.35C732.95 257.07 772.52 249.92 820 249.92C899.57 249.92 939.36 266.41 939.36 299.38C939.36 320.05 931.66 344.22 916.28 371.92C902.65 396.55 888.8 421.16 874.73 445.78C859.78 475.68 852.31 503.81 852.31 530.19V547.99H736.25V524.91C696.93 544.26 658.93 553.93 622.25 553.93C599.97 553.93 580.97 550.41 565.25 543.38C543.85 533.71 533.14 518.98 533.14 499.2C533.14 488.65 536.44 476.78 543.03 463.59C563.69 423.15 603.26 395.23 661.73 379.84C711.85 371.05 761.74 362.03 811.42 352.8H811.43ZM658.43 464.91C658.43 476.35 667.66 482.06 686.13 482.06C726.13 482.06 756.46 461.84 777.13 421.39C753.82 425.35 730.74 429.09 707.89 432.6C674.92 440.08 658.43 450.85 658.43 464.91Z" fill="white"/>
<path d="M1080.48 421.39L1239.4 257.85H1358.03L1065.03 548.01L971.68 547.35V257.85H1080.49V421.39H1080.48Z" fill="white"/>
<path d="M429.3 552.62L631.09 151.01H519.65L403.82 381.55L344.1 151.01H233.44L31.6499 552.62H143.09L256.63 328.12L315.96 552.62" fill="white"/>
</g>
<defs>
<clipPath id="clip0_3_11">
<rect width="1839.99" height="709.56" fill="white"/>
</clipPath>
</defs>
</svg>
